<?xml version="1.0" encoding="UTF-8"?>
<svg xmlns="http://www.w3.org/2000/svg" xmlns:xlink="http://www.w3.org/1999/xlink" width="38pt" height="38pt" viewBox="0 0 38 38" version="1.1">
<g id="surface3283946">
<path style=" stroke:none;fill-rule:nonzero;fill:rgb(15.686275%,17.254902%,20%);fill-opacity:1;" d="M 8.503906 8.503906 C 2.707031 14.300781 2.707031 23.699219 8.503906 29.496094 C 14.300781 35.292969 23.699219 35.292969 29.496094 29.496094 C 35.292969 23.699219 35.292969 14.300781 29.496094 8.503906 C 23.699219 2.707031 14.300781 2.707031 8.503906 8.503906 Z M 8.503906 8.503906 "/>
<path style=" stroke:none;fill-rule:nonzero;fill:rgb(26.666667%,29.411765%,32.941176%);fill-opacity:1;" d="M 19 34.734375 C 14.785156 34.734375 10.835938 33.101562 7.867188 30.132812 C 1.722656 23.988281 1.722656 14.011719 7.867188 7.867188 C 10.835938 4.898438 14.785156 3.265625 19 3.265625 C 23.214844 3.265625 27.164062 4.898438 30.132812 7.867188 C 33.101562 10.835938 34.734375 14.785156 34.734375 19 C 34.734375 23.214844 33.101562 27.164062 30.132812 30.132812 C 27.164062 33.101562 23.214844 34.734375 19 34.734375 Z M 19 5.046875 C 15.257812 5.046875 11.757812 6.5 9.144531 9.144531 C 3.710938 14.578125 3.710938 23.421875 9.144531 28.886719 C 11.757812 31.5 15.257812 32.953125 19 32.953125 C 22.742188 32.953125 26.242188 31.5 28.855469 28.855469 C 31.46875 26.214844 32.953125 22.742188 32.953125 19 C 32.953125 15.257812 31.5 11.757812 28.855469 9.144531 C 26.214844 6.53125 22.742188 5.046875 19 5.046875 Z M 19 5.046875 "/>
<path style=" stroke:none;fill-rule:nonzero;fill:rgb(92.54902%,94.117647%,94.509804%);fill-opacity:1;" d="M 15.851562 23.039062 C 15.617188 23.039062 15.40625 22.949219 15.230469 22.769531 C 14.875 22.414062 14.875 21.851562 15.230469 21.523438 L 21.523438 15.230469 C 21.878906 14.875 22.445312 14.875 22.769531 15.230469 C 23.125 15.585938 23.125 16.148438 22.769531 16.476562 L 16.476562 22.769531 C 16.296875 22.949219 16.089844 23.039062 15.851562 23.039062 Z M 15.851562 23.039062 "/>
<path style=" stroke:none;fill-rule:nonzero;fill:rgb(92.54902%,94.117647%,94.509804%);fill-opacity:1;" d="M 22.148438 23.039062 C 21.910156 23.039062 21.703125 22.949219 21.523438 22.769531 L 15.230469 16.476562 C 14.875 16.121094 14.875 15.554688 15.230469 15.230469 C 15.585938 14.875 16.148438 14.875 16.476562 15.230469 L 22.769531 21.523438 C 23.125 21.878906 23.125 22.445312 22.769531 22.769531 C 22.59375 22.949219 22.382812 23.039062 22.148438 23.039062 Z M 22.148438 23.039062 "/>
</g>
</svg>
