<?xml version="1.0"?>
<svg xmlns="http://www.w3.org/2000/svg" height="512px" viewBox="0 0 128 128" width="512px" class=""><g><g><path d="m69.626 24.71a31.759 31.759 0 1 0 9.3 22.458 31.552 31.552 0 0 0 -9.3-22.458zm-2.475 42.441a28.258 28.258 0 1 1 8.278-19.983 28.074 28.074 0 0 1 -8.278 19.983z" data-original="#000000" class="active-path" data-old_color="#000000" fill="#3C414D"/><path d="m120.188 104.477-36.08-36.077a42.546 42.546 0 1 0 -15.708 15.708l36.08 36.08a11.109 11.109 0 1 0 15.711-15.711zm-100.675-29.654a39.11 39.11 0 1 1 55.31 0 39.154 39.154 0 0 1 -55.31 0zm98.2 42.89a7.62 7.62 0 0 1 -10.763 0l-35.524-35.525a42.047 42.047 0 0 0 10.762-10.762l35.526 35.525a7.619 7.619 0 0 1 0 10.762z" data-original="#000000" class="active-path" data-old_color="#000000" fill="#3C414D"/><path d="m54.646 51.033c2.554-4.441 4.926-9.931 4.895-14.974a12.373 12.373 0 0 0 -24.741-.011c-.031 5.049 2.342 10.542 4.9 14.985-7.3 1.219-11.87 4.134-11.87 7.73 0 5.47 9.729 8.332 19.338 8.332s19.338-2.862 19.338-8.332c0-3.596-4.574-6.511-11.86-7.73zm-7.478-23.847a8.886 8.886 0 0 1 8.873 8.884c.044 7.282-6.1 16.211-8.874 19.872-2.776-3.658-8.916-12.58-8.872-19.883a8.883 8.883 0 0 1 8.873-8.873zm0 36.409c-10.248.005-15.838-3.195-15.838-4.832 0-1.38 3.6-3.625 10.36-4.489a62.2 62.2 0 0 0 4.145 5.626 1.748 1.748 0 0 0 2.666 0 62.37 62.37 0 0 0 4.145-5.622c6.762.864 10.36 3.109 10.36 4.489 0 1.633-5.59 4.833-15.838 4.833z" data-original="#000000" class="active-path" data-old_color="#000000" fill="#3C414D"/><path d="m52.656 36.059a5.488 5.488 0 1 0 -5.488 5.488 5.494 5.494 0 0 0 5.488-5.488zm-7.476 0a1.988 1.988 0 1 1 1.988 1.988 1.99 1.99 0 0 1 -1.988-1.988z" data-original="#000000" class="active-path" data-old_color="#000000" fill="#3C414D"/><path d="m100.169 93.949a1.75 1.75 0 1 0 -2.475 2.475l11.828 11.828a1.75 1.75 0 0 0 2.478-2.475z" data-original="#000000" class="active-path" data-old_color="#000000" fill="#3C414D"/><path d="m90.808 84.587a1.75 1.75 0 0 0 -2.475 2.475l3.561 3.561a1.75 1.75 0 1 0 2.474-2.475z" data-original="#000000" class="active-path" data-old_color="#000000" fill="#3C414D"/></g></g> </svg>
