<?xml version="1.0" encoding="UTF-8"?>
<svg xmlns="http://www.w3.org/2000/svg" xmlns:xlink="http://www.w3.org/1999/xlink" width="38pt" height="38pt" viewBox="0 0 38 38" version="1.1">
<g id="surface2339349">
<path style=" stroke:none;fill-rule:nonzero;fill:rgb(100%,100%,100%);fill-opacity:1;" d="M 25.828125 17.722656 C 25.828125 21.492188 22.769531 24.550781 19 24.550781 C 15.230469 24.550781 12.171875 21.492188 12.171875 17.722656 L 12.171875 9.589844 L 25.828125 11.222656 Z M 30.015625 34.320312 C 27.816406 30.488281 23.71875 27.90625 19 27.90625 C 14.28125 27.90625 10.183594 30.488281 7.984375 34.320312 L 8.015625 35.328125 L 29.984375 35.328125 Z M 30.015625 34.320312 "/>
<path style=" stroke:none;fill-rule:nonzero;fill:rgb(59.607843%,68.235294%,12.156863%);fill-opacity:1;" d="M 7.984375 35.210938 C 7.835938 35.210938 7.6875 35.179688 7.539062 35.089844 C 7.125 34.851562 6.976562 34.320312 7.214844 33.875 C 9.617188 29.65625 14.132812 27.015625 19 27.015625 C 23.867188 27.015625 28.382812 29.65625 30.785156 33.875 C 31.023438 34.289062 30.875 34.851562 30.460938 35.089844 C 30.042969 35.328125 29.480469 35.179688 29.242188 34.765625 C 27.132812 31.082031 23.214844 28.796875 19 28.796875 C 14.785156 28.796875 10.867188 31.082031 8.757812 34.765625 C 8.609375 35.03125 8.3125 35.210938 7.984375 35.210938 Z M 23.039062 8.640625 L 22.917969 8.460938 C 22.058594 7.242188 20.632812 6.5 19.148438 6.5 L 16.625 6.5 C 12.855469 6.5 9.796875 9.558594 9.796875 13.328125 C 9.796875 13.835938 10.183594 14.21875 10.6875 14.21875 L 12.230469 14.21875 C 12.261719 14.21875 12.261719 14.21875 12.289062 14.21875 C 15.703125 14.21875 19.179688 14.21875 21.671875 11.992188 L 21.671875 12.023438 C 21.789062 11.90625 21.910156 11.816406 22 11.695312 C 22.324219 11.339844 22.890625 11.28125 23.246094 11.609375 C 23.632812 11.933594 23.660156 12.527344 23.304688 12.914062 C 23.15625 13.0625 23.039062 13.179688 22.890625 13.328125 C 22.503906 13.714844 22.652344 14.367188 23.15625 14.578125 C 23.453125 14.695312 23.78125 14.753906 24.105469 14.785156 C 24.550781 14.84375 24.90625 15.199219 24.90625 15.675781 L 24.90625 17.695312 C 24.90625 20.839844 22.53125 23.542969 19.386719 23.75 C 15.972656 23.988281 13.09375 21.257812 13.0625 17.84375 C 13.0625 17.367188 12.707031 16.953125 12.230469 16.921875 C 11.726562 16.890625 11.28125 17.308594 11.28125 17.8125 C 11.28125 22.058594 14.753906 25.53125 19 25.53125 C 23.125 25.53125 26.511719 22.296875 26.71875 18.199219 C 26.71875 18.167969 26.71875 18.140625 26.71875 18.109375 L 26.71875 12.765625 C 26.71875 10.628906 25.117188 8.875 23.039062 8.640625 Z M 23.039062 8.640625 "/>
</g>
</svg>