<svg xmlns="http://www.w3.org/2000/svg" xmlns:xlink="http://www.w3.org/1999/xlink" width="20" height="20" viewBox="0 0 20 20">
    <defs>
        <path id="a" d="M15.25 16.4H4.75c-.565 0-.982-.558-.769-1.07.99-2.372 3.313-3.73 6.019-3.73 2.707 0 5.03 1.358 6.02 3.73.212.512-.205 1.07-.77 1.07M6.733 6.8C6.733 5.035 8.2 3.6 10 3.6s3.266 1.435 3.266 3.2c0 1.765-1.465 3.2-3.266 3.2-1.8 0-3.267-1.435-3.267-3.2m11.232 9.309c-.594-2.687-2.451-4.67-4.895-5.57 1.295-1.022 2.05-2.674 1.773-4.483-.322-2.098-2.104-3.778-4.255-4.022C7.618 1.695 5.1 3.959 5.1 6.8c0 1.512.715 2.86 1.831 3.738-2.445.9-4.301 2.884-4.896 5.57C1.82 17.087 2.623 18 3.643 18h12.714c1.02 0 1.824-.914 1.608-1.891"/>
    </defs>
    <g fill="none" fill-rule="evenodd">
        <path fill="#FFF" fill-opacity="0" d="M0 0h20v20H0z"/>
        <mask id="b" fill="#fff">
            <use xlink:href="#a"/>
        </mask>
        <use fill="#fff" xlink:href="#a"/>
        <g fill="#fff" mask="url(#b)">
            <rect width="20" height="20" rx="6"/>
        </g>
    </g>
</svg>
