<svg xmlns="http://www.w3.org/2000/svg" xmlns:xlink="http://www.w3.org/1999/xlink" width="24" height="18" viewBox="0 0 24 18">
    <defs>
        <path id="a" d="M15.709 10.438l-2.04-8.552c-.191-.588-.541-1.03-1.01-1.321l-.163-.08L11.39.067c-.465-.133-.88-.063-1.205.164a1.277 1.277 0 0 0-.543.902l-1.134 6.05-1.91-.872-.859-2.544a2.615 2.615 0 0 0-.173-.5c-.222-.48-.55-.834-1.127-.89l-.668-.099a.947.947 0 0 0-.23-.005 1.441 1.441 0 0 0-.499.143c-.398.194-.688.562-.688 1.066L1.86 8.864c-.105.672.35 1.28 1.124 1.604l15.318 6.982c1.364.613 2.975.035 3.603-1.29.627-1.327.034-2.897-1.326-3.51a1.047 1.047 0 0 0-.172-.06l-4.7-2.152zm4.52 4.967a.875.875 0 0 1-1.148.412L3.739 8.825a3.165 3.165 0 0 1-.02-.009l.378-4.157.873 2.584c.08.235.255.428.485.533L8.81 9.307c.548.25 1.19-.073 1.3-.653l1.249-6.67.364.138a.526.526 0 0 1 .168.244l2.121 8.905c.064.268.25.493.507.61l5.317 2.436c.034.016.067.029.1.04.34.229.472.67.293 1.048zM3.897 4.01a.553.553 0 0 1-.01.006c.016.035.03.073.04.105l.216.032a.567.567 0 0 1-.246-.143z"/>
    </defs>
    <g fill="none" fill-rule="evenodd">
        <path fill="#FFF" fill-opacity="0" d="M0 0h24v18H0z"/>
        <mask id="b" fill="#fff">
            <use xlink:href="#a"/>
        </mask>
        <use fill="#8A9099" fill-rule="nonzero" xlink:href="#a"/>
        <g fill="#9DA4B3" mask="url(#b)">
            <path d="M0 0h24v18H0z"/>
        </g>
    </g>
</svg>
